<?xml version="1.0" standalone="no"?>
<!DOCTYPE svg PUBLIC "-//W3C//DTD SVG 20010904//EN"
 "http://www.w3.org/TR/2001/REC-SVG-20010904/DTD/svg10.dtd">
<svg version="1.0" xmlns="http://www.w3.org/2000/svg"
 width="3685.000000pt" height="2469.000000pt" viewBox="0 0 3685.000000 2469.000000"
 preserveAspectRatio="xMidYMid meet">

<g transform="translate(0.000000,2469.000000) scale(0.100000,-0.100000)"
fill="#000000" stroke="none">
<path d="M16770 24673 c-19 -1 -87 -8 -150 -14 -281 -26 -666 -108 -950 -202
-670 -221 -1262 -580 -1765 -1068 l-160 -156 -155 -12 c-978 -76 -1894 -460
-2622 -1100 -893 -785 -1429 -1867 -1517 -3064 l-10 -129 -143 -146 c-589
-605 -1003 -1389 -1173 -2226 -178 -875 -100 -1792 222 -2605 224 -567 544
-1061 978 -1509 l133 -138 11 -134 c51 -606 195 -1138 447 -1650 269 -547 617
-1001 1074 -1403 723 -635 1643 -1020 2624 -1097 l140 -11 120 -117 c668 -649
1493 -1077 2366 -1227 85 -14 162 -30 171 -35 10 -5 39 -9 65 -9 27 1 99 -5
159 -12 168 -20 710 -18 903 4 558 63 1059 209 1548 450 451 224 824 487 1187
839 l129 125 185 17 c525 47 1010 176 1494 396 79 36 129 54 132 47 2 -6 24 5
49 26 26 21 102 70 170 109 660 377 1219 924 1607 1573 364 608 572 1260 631
1979 l11 129 139 146 c286 301 498 582 690 916 575 998 744 2241 459 3380
-195 780 -587 1480 -1160 2070 l-116 120 -12 155 c-74 958 -425 1824 -1039
2563 -108 130 -335 360 -482 490 -725 636 -1642 1020 -2623 1096 l-117 9 -126
121 c-791 765 -1765 1210 -2849 1301 -109 9 -591 12 -675 3z m800 -237 c1004
-125 1896 -559 2600 -1267 l136 -136 164 -12 c752 -53 1450 -286 2062 -687
1147 -750 1870 -2009 1935 -3367 l6 -138 137 -137 c695 -698 1108 -1539 1241
-2527 21 -150 23 -212 24 -530 0 -289 -4 -389 -18 -505 -64 -514 -200 -974
-418 -1415 -205 -415 -462 -775 -800 -1120 l-176 -180 -7 -120 c-53 -928 -395
-1798 -989 -2515 -137 -165 -552 -571 -583 -570 -5 0 -29 46 -53 103 -158 363
-450 897 -659 1202 -205 299 -562 687 -1035 1125 -108 100 -223 215 -256 255
-165 206 -264 440 -292 695 -21 187 18 213 -327 -225 l-302 -386 32 -13 c18
-7 69 -26 112 -41 219 -78 539 -265 771 -451 229 -183 526 -504 707 -764 304
-436 538 -994 593 -1413 17 -134 38 -524 28 -540 -9 -15 -293 -150 -433 -205
-427 -169 -905 -275 -1345 -298 l-130 -7 -170 -166 c-93 -92 -210 -201 -260
-242 -491 -410 -1051 -705 -1661 -873 -153 -42 -365 -89 -372 -82 -6 7 78 641
124 941 125 805 191 1338 234 1880 39 487 124 865 274 1213 20 46 36 90 36 97
0 15 -14 20 -85 30 -73 10 -240 67 -333 114 -45 23 -82 39 -82 36 0 -2 25 -43
56 -90 69 -107 146 -267 174 -365 32 -108 38 -320 15 -482 -48 -341 -186 -750
-392 -1162 -109 -217 -110 -219 -518 -911 -188 -319 -442 -751 -565 -960 -122
-209 -223 -381 -224 -381 -3 -4 -212 28 -306 47 -690 137 -1323 429 -1865 862
-150 120 -390 340 -458 420 l-47 54 -123 7 c-1169 65 -2235 578 -2997 1444
-643 729 -1012 1632 -1066 2611 l-7 125 -141 141 c-332 331 -594 686 -802
1090 -587 1135 -639 2488 -142 3665 216 511 507 944 914 1360 l152 155 11 165
c27 402 93 740 216 1107 330 989 1023 1832 1939 2358 559 320 1245 521 1886
551 l143 7 116 120 c524 541 1194 946 1907 1152 313 91 562 136 924 169 106 9
650 -4 770 -18z"/>
<path d="M17065 22659 c-404 -37 -728 -315 -847 -725 -20 -70 -23 -100 -22
-259 0 -167 2 -186 28 -270 110 -361 342 -612 711 -771 55 -24 101 -48 103
-53 4 -11 -121 32 -241 84 -284 122 -511 327 -632 570 -61 123 -90 216 -121
386 -29 160 -55 248 -86 292 -41 58 -149 84 -221 53 -44 -18 -94 -77 -108
-128 -16 -59 -5 -201 23 -285 35 -108 162 -350 232 -443 141 -188 350 -357
567 -459 110 -52 275 -110 372 -132 32 -7 54 -16 50 -20 -4 -4 -42 -16 -83
-27 -104 -28 -222 -80 -322 -140 -163 -99 -218 -168 -218 -274 0 -65 22 -101
75 -118 68 -22 137 14 273 142 125 118 230 187 361 237 28 10 51 16 51 11 0
-4 -30 -25 -67 -46 -142 -83 -287 -252 -367 -427 -119 -260 -187 -645 -190
-1067 -1 -195 0 -207 22 -247 28 -54 71 -77 142 -77 77 0 147 34 210 100 95
101 112 184 86 428 -17 159 -22 406 -7 391 4 -6 16 -41 25 -80 35 -147 161
-346 247 -390 77 -40 159 -3 159 72 0 49 -14 68 -136 188 -111 110 -159 189
-188 315 -29 122 -16 311 29 425 14 37 15 38 10 8 -29 -196 -7 -320 83 -463
115 -183 305 -270 557 -257 128 7 190 23 299 80 155 80 283 244 316 404 19 90
9 217 -22 285 -97 210 -356 284 -512 147 -103 -91 -121 -208 -46 -289 l30 -32
45 41 c28 26 54 41 70 41 69 0 122 -68 112 -142 -8 -61 -51 -139 -109 -196
-126 -125 -296 -154 -454 -77 -141 69 -235 234 -221 388 5 53 61 196 73 184 2
-2 -6 -30 -17 -62 -74 -212 8 -422 192 -491 68 -26 210 -23 279 4 75 29 132
73 169 129 56 84 65 180 19 204 -20 11 -20 10 -14 -45 6 -47 4 -64 -14 -101
-69 -142 -283 -212 -432 -141 -67 32 -121 89 -155 163 -22 48 -25 65 -21 138
4 68 10 95 36 148 56 112 173 212 325 275 130 55 303 102 370 102 172 0 357
-112 429 -257 28 -56 33 -79 36 -157 3 -61 -1 -114 -12 -160 -9 -38 -14 -71
-12 -73 7 -7 90 174 116 251 14 44 23 97 24 142 2 87 13 103 94 133 202 75
489 72 779 -10 169 -47 446 -155 628 -243 348 -169 587 -337 846 -595 180
-180 264 -282 401 -491 102 -155 247 -439 313 -615 197 -523 261 -1089 200
-1778 -96 -1088 -493 -1883 -1235 -2474 -93 -75 -129 -97 -117 -75 2 4 34 58
71 120 168 280 231 481 230 732 0 223 -53 406 -165 571 -85 126 -254 251 -396
292 -225 66 -473 -19 -579 -198 -28 -48 -54 -145 -54 -200 0 -66 27 -172 62
-243 34 -71 143 -192 172 -192 24 0 20 12 -16 43 l-33 27 50 -22 c40 -18 69
-22 145 -23 88 0 101 3 162 33 99 48 154 122 178 235 30 145 -41 301 -167 369
-120 65 -274 58 -348 -16 -53 -54 -19 -165 56 -181 45 -10 84 11 125 66 20 27
37 49 39 49 18 0 61 -26 95 -56 64 -58 84 -105 85 -194 0 -65 -4 -82 -30 -129
-49 -90 -134 -139 -240 -140 -77 -1 -130 23 -193 86 -111 112 -136 268 -65
412 54 111 160 189 297 218 258 54 539 -130 666 -437 36 -88 70 -222 69 -274
l0 -41 -16 35 c-93 204 -194 382 -209 367 -3 -3 2 -30 11 -60 55 -189 27 -429
-71 -617 -75 -143 -169 -218 -346 -275 -176 -56 -284 -129 -388 -259 -29 -37
-54 -66 -55 -64 -2 2 3 75 11 163 42 490 -6 822 -166 1150 -74 153 -161 274
-271 379 -229 219 -530 348 -863 372 -75 5 -85 4 -136 -23 -63 -32 -100 -85
-100 -146 0 -116 99 -167 325 -167 246 -1 424 -46 605 -156 72 -43 214 -162
180 -150 -8 2 -47 18 -87 35 -116 50 -206 64 -368 58 -77 -3 -156 -10 -176
-16 -88 -27 -149 -100 -149 -178 0 -85 61 -92 299 -36 230 54 355 50 454 -16
l29 -19 -89 5 c-107 7 -174 -6 -262 -50 -133 -65 -211 -179 -211 -306 0 -155
82 -267 234 -317 70 -24 186 -23 256 2 96 33 180 137 180 220 0 30 -37 82 -72
104 -60 36 -178 20 -178 -25 0 -7 8 -26 17 -43 22 -38 13 -56 -38 -82 -31 -16
-51 -20 -77 -15 -148 28 -222 166 -151 281 25 41 35 40 18 -2 -6 -16 -12 -57
-12 -91 -2 -66 13 -97 66 -137 32 -23 126 -34 153 -17 16 10 13 11 -18 6 -71
-11 -145 36 -174 112 -23 59 -7 110 50 168 55 54 126 80 206 72 115 -10 193
-79 278 -245 47 -93 50 -102 41 -142 -15 -66 -34 -105 -75 -150 -50 -55 -117
-88 -209 -102 -41 -6 -75 -15 -75 -20 0 -4 67 -8 149 -8 181 0 187 -3 176 -88
-40 -322 -238 -629 -526 -818 -169 -110 -358 -117 -525 -19 -192 112 -294 387
-209 561 32 65 119 148 192 182 48 22 72 27 138 27 136 0 225 -46 225 -115 0
-39 -39 -92 -83 -114 -32 -15 -45 -16 -80 -8 -23 6 -43 9 -46 7 -11 -12 -2
-115 14 -149 39 -81 157 -130 255 -106 135 32 219 174 190 317 -28 132 -116
246 -237 304 -93 45 -182 48 -474 18 -388 -40 -541 -28 -718 56 -197 94 -304
216 -352 403 -56 218 14 406 195 524 232 150 529 74 685 -176 43 -69 41 -106
-6 -157 -54 -57 -97 -62 -164 -20 l-50 31 -16 -38 c-34 -82 5 -223 81 -290 63
-55 94 -67 181 -67 97 0 138 17 211 90 121 121 149 301 79 511 -116 348 -522
569 -900 489 -146 -31 -317 -137 -401 -248 -103 -137 -136 -246 -136 -447 0
-160 19 -251 82 -375 68 -136 148 -219 340 -358 25 -18 25 -18 -30 -12 -233
24 -539 118 -780 239 -730 366 -1230 1037 -1230 1650 0 248 68 473 207 686
147 223 379 381 633 430 92 18 255 13 345 -10 100 -25 241 -93 321 -153 331
-251 429 -617 253 -948 -45 -85 -165 -195 -264 -243 -282 -138 -558 -85 -770
147 -64 70 -83 107 -47 92 9 -4 71 -10 138 -12 183 -8 284 28 390 138 106 112
152 272 121 423 -23 112 -59 180 -138 258 -106 107 -210 145 -374 135 -170
-10 -276 -60 -376 -180 -70 -83 -122 -187 -150 -297 -18 -72 -21 -103 -16
-220 9 -248 76 -409 237 -570 409 -410 1120 -267 1336 268 44 109 58 181 58
302 0 100 -16 218 -41 299 -3 11 1 10 12 -4 31 -36 113 -220 144 -321 33 -111
41 -90 16 42 -60 315 -253 595 -543 788 -187 125 -335 175 -537 183 -144 6
-275 -15 -402 -62 -36 -14 -69 -25 -74 -25 -4 0 20 46 53 103 233 390 373 822
407 1256 21 264 11 818 -19 1031 -108 763 -452 1448 -955 1903 -285 258 -620
469 -942 593 -160 62 -224 77 -333 77 -107 1 -181 -17 -273 -65 -169 -90 -237
-284 -159 -453 75 -159 211 -238 562 -325 245 -61 447 -122 553 -167 59 -25
107 -50 107 -56 0 -5 -12 -6 -27 -2 -152 38 -363 52 -527 36 -280 -29 -622
-151 -734 -262 -84 -83 -113 -197 -70 -278 33 -63 75 -84 158 -78 83 5 161 41
307 140 139 94 225 138 356 182 321 107 650 78 1002 -90 81 -39 97 -51 156
-122 91 -108 249 -310 249 -317 0 -3 -26 15 -57 41 -257 209 -578 334 -903
350 -215 11 -385 -23 -565 -112 -340 -168 -571 -503 -640 -930 -19 -116 -19
-354 0 -470 20 -128 59 -255 110 -363 66 -139 205 -347 205 -306 0 4 -15 32
-34 63 -57 94 -105 197 -136 289 -30 91 -62 233 -55 241 6 5 4 10 44 -74 129
-269 369 -457 661 -517 328 -68 721 67 922 317 132 163 208 395 208 632 0 261
-84 459 -274 641 -181 173 -385 272 -566 272 -146 0 -332 -75 -433 -176 -113
-112 -168 -239 -170 -389 -2 -166 52 -304 164 -416 107 -108 235 -159 397
-159 186 0 345 81 455 232 l52 71 8 -44 c4 -24 6 -87 4 -139 -7 -165 -69 -308
-190 -436 -72 -78 -130 -121 -224 -168 -210 -105 -441 -99 -668 17 -117 60
-244 190 -307 312 -67 130 -89 215 -95 368 -7 147 6 240 48 371 180 550 765
826 1350 636 491 -159 835 -541 983 -1092 101 -374 94 -787 -21 -1253 -21 -82
-39 -141 -41 -129 -1 11 11 101 27 200 40 241 51 348 51 506 0 305 -73 656
-181 874 -69 141 -100 181 -162 210 -63 29 -91 30 -117 4 -41 -41 -20 -124 78
-310 114 -217 199 -467 242 -710 18 -98 23 -173 26 -345 3 -221 -1 -226 -25
-35 -16 121 -55 288 -82 346 -25 53 -111 144 -161 170 -22 11 -48 15 -86 12
-115 -10 -120 -77 -23 -364 98 -291 138 -542 129 -805 -6 -167 -22 -210 -31
-86 -18 229 -105 519 -193 638 -25 34 -53 57 -96 78 -106 53 -193 35 -235 -49
-43 -83 -21 -184 71 -325 135 -207 202 -388 221 -595 9 -95 -3 -86 -45 34
-153 433 -444 754 -874 966 -150 74 -225 94 -326 88 -119 -7 -196 -59 -220
-150 -37 -135 59 -220 331 -294 331 -89 498 -181 694 -378 95 -96 227 -268
214 -280 -2 -2 -49 34 -104 80 -189 159 -401 285 -590 350 -109 38 -228 40
-297 6 -64 -32 -91 -71 -96 -143 -9 -126 54 -165 378 -234 199 -42 345 -106
490 -213 75 -56 203 -180 222 -217 11 -19 10 -19 -13 -2 -121 86 -226 121
-359 122 -82 0 -103 -4 -151 -26 -111 -52 -179 -140 -198 -257 -27 -170 68
-346 227 -420 74 -34 192 -42 257 -17 69 26 95 64 95 136 0 100 -47 159 -126
159 -43 0 -44 0 -50 -40 -12 -77 -88 -80 -147 -7 -83 101 -98 181 -49 258 49
77 177 128 247 98 29 -12 28 -13 -40 -19 -98 -8 -162 -41 -186 -94 -39 -85
-13 -206 53 -246 52 -32 62 -23 19 16 -54 48 -78 111 -62 164 15 50 65 109
108 126 97 41 239 -13 311 -119 41 -59 81 -165 99 -261 14 -74 14 -96 -2 -259
-56 -566 70 -998 424 -1450 196 -250 392 -625 581 -1109 40 -104 75 -187 76
-185 1 1 -4 47 -12 102 -18 115 -32 665 -18 665 5 0 66 -29 135 -64 284 -144
577 -232 899 -270 176 -21 411 -29 570 -18 74 5 136 8 138 7 1 -1 -19 -16 -45
-33 -66 -43 -155 -135 -197 -206 -67 -112 -124 -330 -106 -409 21 -98 170
-152 217 -80 13 20 15 40 8 126 -20 241 -4 327 85 460 50 75 120 150 105 112
-51 -123 -65 -183 -65 -280 1 -157 51 -277 173 -411 177 -194 483 -284 827
-245 117 14 374 66 550 112 507 134 956 357 1296 646 35 30 68 51 74 48 6 -3
8 -23 5 -43 -23 -182 -37 -391 -33 -510 4 -126 8 -146 43 -247 93 -271 211
-424 396 -517 226 -113 518 -42 623 153 76 139 75 309 -3 474 -29 60 -94 145
-105 135 -3 -3 8 -26 24 -50 16 -24 27 -46 25 -48 -2 -3 -19 8 -37 23 -60 51
-114 68 -213 69 -83 1 -96 -2 -157 -32 -73 -36 -123 -86 -159 -161 -19 -38
-23 -63 -24 -141 0 -112 18 -161 86 -235 65 -70 126 -98 230 -103 104 -5 143
10 166 66 53 128 -138 215 -202 91 l-16 -30 -32 19 c-75 46 -128 174 -109 260
21 93 95 178 181 207 132 45 272 -23 340 -165 22 -47 26 -69 26 -145 0 -82 -3
-97 -33 -157 -39 -79 -97 -135 -189 -180 -216 -106 -519 24 -650 279 -45 87
-77 179 -92 267 -14 75 -14 217 0 275 14 61 201 532 307 771 47 107 148 320
224 473 161 324 210 434 284 637 260 716 328 1447 203 2205 -111 673 -425
1293 -908 1787 -370 381 -804 654 -1352 851 -269 98 -490 139 -994 186 -432
41 -904 92 -1020 111 -387 62 -674 196 -912 423 -139 134 -207 236 -252 381
-49 158 -35 329 39 481 114 235 341 380 595 379 120 -1 200 -20 306 -75 98
-51 190 -134 251 -228 144 -221 124 -471 -42 -511 -38 -9 -58 -9 -87 0 -50 16
-111 75 -125 122 -13 44 -11 42 -46 24 -43 -23 -99 -87 -124 -141 -32 -70 -33
-218 -1 -287 131 -287 586 -255 808 57 165 230 183 549 47 838 -139 297 -394
496 -706 551 -112 20 -225 25 -331 15z m-2509 -2559 c133 -57 205 -225 151
-352 -26 -63 -102 -135 -166 -159 -221 -83 -446 154 -347 367 66 142 222 204
362 144z m1769 -3254 c169 -100 165 -327 -7 -422 -201 -110 -430 113 -327 317
22 45 97 112 141 127 53 18 142 8 193 -22z"/>
<path d="M19100 20029 c-331 -28 -576 -242 -636 -557 -58 -305 87 -600 368
-747 308 -162 733 -52 872 225 65 132 72 283 16 397 -36 73 -124 159 -203 197
-189 93 -399 19 -468 -163 -28 -75 -23 -195 10 -261 29 -57 85 -116 134 -141
45 -24 41 -36 -16 -44 -109 -16 -260 39 -356 130 -93 88 -150 221 -151 346 0
112 76 262 172 338 105 84 203 112 392 112 200 0 356 -43 596 -162 566 -282
987 -720 1280 -1333 141 -294 225 -582 276 -946 19 -140 32 -731 15 -715 -5 6
-21 80 -35 165 -131 813 -365 1459 -689 1900 -95 129 -289 320 -405 398 -92
61 -214 125 -262 137 l-25 6 -1 -93 c-2 -106 -23 -196 -64 -278 -61 -121 -139
-195 -295 -278 l-80 -43 145 3 145 4 92 43 c105 48 98 48 218 -12 127 -63 251
-153 374 -272 139 -135 209 -219 326 -395 234 -352 412 -804 530 -1352 28
-134 28 -131 16 -124 -5 4 -26 59 -46 124 -150 476 -391 882 -706 1187 -521
504 -1102 741 -1707 696 -268 -21 -467 -73 -662 -175 -261 -135 -309 -157
-389 -177 -109 -27 -252 -24 -322 8 -95 43 -179 150 -179 228 1 68 66 156 128
172 14 3 57 -1 95 -11 39 -9 72 -14 75 -12 2 3 -11 14 -29 25 -48 29 -140 29
-199 -1 -62 -32 -80 -70 -80 -178 -1 -74 -2 -83 -14 -67 -21 27 -29 100 -16
147 14 51 63 108 115 131 51 24 129 24 180 0 41 -18 95 -72 95 -95 0 -22 -24
-46 -54 -54 -38 -10 -40 -20 -16 -60 31 -51 76 -74 135 -69 61 4 102 23 129
60 17 23 21 42 20 95 -2 151 -109 272 -281 317 -195 51 -380 -34 -444 -204
-16 -45 -20 -73 -17 -142 3 -74 8 -95 40 -160 63 -127 186 -231 312 -263 32
-9 61 -18 63 -20 11 -10 -97 -16 -142 -7 -129 25 -244 91 -394 225 -96 86
-132 106 -189 106 -48 0 -68 -17 -82 -69 -22 -82 21 -182 103 -242 64 -47 233
-126 322 -150 63 -18 108 -23 213 -23 107 -1 129 -3 115 -13 -47 -35 -247 -74
-383 -75 -176 -1 -327 35 -539 129 -117 52 -222 82 -284 83 -100 0 -167 -100
-137 -206 16 -56 85 -135 144 -164 63 -30 253 -76 378 -90 132 -16 363 -8 473
15 102 21 259 73 355 118 41 20 76 34 77 33 2 -1 -11 -56 -29 -122 -28 -106
-31 -135 -32 -269 -1 -118 3 -166 18 -225 46 -179 134 -328 281 -476 172 -173
368 -278 620 -329 112 -23 331 -31 435 -16 77 12 247 58 238 66 -1 1 -39 -3
-83 -11 -128 -21 -323 -29 -383 -14 -55 13 -61 30 -11 30 52 0 175 29 247 59
228 94 404 293 474 538 19 65 23 102 23 218 -1 168 -14 225 -86 373 -103 209
-291 361 -524 423 -96 25 -277 30 -370 10 -228 -50 -469 -221 -551 -391 -39
-80 -54 -148 -54 -248 1 -286 184 -492 455 -509 291 -19 518 193 518 482 -1
113 -26 196 -89 289 l-46 69 52 -6 c30 -4 89 -24 138 -48 144 -69 266 -209
330 -377 23 -60 26 -81 26 -197 0 -115 -3 -138 -26 -203 -73 -202 -215 -343
-414 -408 -81 -26 -102 -29 -224 -29 -110 0 -149 4 -213 23 -239 69 -445 238
-555 457 -120 241 -117 545 8 813 103 219 314 423 569 551 411 207 952 169
1517 -105 294 -143 595 -381 825 -654 82 -97 261 -352 252 -361 -4 -4 -43 14
-87 41 -152 95 -321 138 -494 127 -303 -19 -533 -161 -647 -398 -51 -108 -68
-199 -62 -332 6 -137 23 -204 84 -327 85 -174 241 -300 466 -379 92 -31 112
-35 212 -35 167 0 300 48 397 145 134 134 146 351 25 454 -83 71 -223 89 -320
41 -30 -14 -61 -34 -71 -44 -16 -18 -14 -20 24 -46 71 -47 95 -107 66 -164
-20 -39 -46 -59 -92 -71 -140 -37 -362 109 -452 296 -36 76 -37 81 -37 189 0
108 1 112 39 188 115 233 379 339 636 256 295 -96 490 -391 594 -900 65 -318
93 -627 76 -846 -6 -76 -13 -149 -17 -163 -11 -51 14 -6 60 104 153 371 252
752 304 1165 25 205 25 730 0 909 -55 390 -148 709 -302 1041 -177 379 -382
684 -640 948 -161 166 -294 276 -484 403 -383 255 -780 371 -1161 338z m-534
-2595 c113 -47 179 -185 140 -292 -78 -216 -361 -230 -455 -22 -86 191 120
395 315 314z"/>
<path d="M18186 19190 c-109 -73 -163 -99 -283 -136 -51 -16 -93 -32 -93 -35
0 -3 24 -18 53 -34 78 -42 169 -109 207 -151 46 -53 81 -135 87 -205 3 -32 8
-59 10 -59 2 0 33 13 69 30 87 39 192 60 306 60 l93 0 -54 31 c-158 91 -269
280 -288 492 -3 37 -9 67 -12 67 -3 0 -46 -27 -95 -60z"/>
<path d="M18875 18164 c-88 -10 -179 -29 -250 -52 l-80 -27 160 -6 c122 -5
183 -13 256 -32 292 -76 499 -276 593 -574 23 -74 54 -254 72 -422 l7 -63 25
33 c54 73 193 198 273 248 166 102 322 144 536 145 73 1 133 4 133 7 0 9 -228
194 -324 263 -302 216 -629 373 -911 439 -162 38 -363 55 -490 41z"/>
<path d="M16970 17380 c0 -6 13 -45 30 -88 112 -290 494 -724 838 -952 103
-68 240 -134 268 -128 9 2 -22 30 -73 68 -123 91 -309 274 -383 378 -139 195
-208 386 -226 631 l-7 93 -26 -7 c-14 -3 -82 -8 -151 -11 -96 -5 -141 -2 -193
10 -81 19 -77 19 -77 6z"/>
<path d="M19407 16259 c-194 -98 -299 -122 -602 -135 l-160 -7 85 -29 c122
-40 273 -119 371 -193 106 -79 236 -215 308 -321 30 -43 57 -83 62 -87 4 -5
24 23 44 62 51 97 109 146 264 225 l130 65 -62 44 c-115 83 -241 236 -316 385
-12 23 -22 42 -24 41 -1 0 -46 -22 -100 -50z"/>
<path d="M15461 16098 c-2 -35 63 -209 123 -333 191 -392 549 -783 899 -982
110 -62 316 -137 333 -121 2 3 -16 38 -40 78 -162 263 -159 533 10 798 19 29
34 54 34 56 0 2 -29 -7 -65 -20 -133 -48 -256 -66 -415 -61 -171 6 -226 19
-365 87 -198 97 -322 219 -502 497 -10 16 -12 16 -12 1z"/>
<path d="M21100 15985 c0 -47 -71 -167 -133 -229 -63 -63 -178 -131 -264 -156
l-41 -13 54 -71 c155 -201 209 -433 185 -784 -7 -96 -10 -176 -8 -179 6 -5
188 249 223 311 84 150 93 533 22 981 -19 123 -37 189 -38 140z"/>
<path d="M18590 12396 c-19 -7 -52 -21 -72 -30 -50 -22 -113 -20 -183 4 -101
35 -117 32 -331 -63 -44 -20 -107 -43 -140 -52 -63 -17 -177 -22 -234 -11
l-35 7 31 -21 c59 -39 158 -50 554 -60 312 -8 394 -7 485 5 141 18 240 21 445
10 183 -9 244 1 321 52 54 36 49 45 -13 21 -77 -30 -214 -35 -314 -13 -90 20
-135 37 -284 105 -118 54 -178 66 -230 46z"/>
<path d="M18885 12095 c-170 -30 -324 -57 -342 -60 -29 -5 -32 -9 -35 -48 l-3
-42 -23 49 c-21 46 -24 49 -39 33 -12 -12 -18 -40 -21 -104 -6 -104 -16 -88
-27 40 -6 70 -10 85 -20 77 -7 -6 -16 -42 -20 -80 -4 -39 -11 -70 -16 -70 -5
0 -9 36 -9 80 0 72 -9 97 -25 70 -4 -6 -14 -6 -28 0 -12 6 -119 26 -237 45
-118 19 -225 37 -237 40 -59 14 12 -121 122 -230 135 -136 298 -201 530 -212
193 -9 328 21 482 109 136 77 258 219 279 326 5 24 3 32 -7 31 -8 0 -153 -25
-324 -54z"/>
<path d="M3325 8206 c-455 -91 -713 -503 -574 -919 29 -87 92 -191 159 -260
32 -32 52 -60 46 -63 -6 -2 -65 -22 -131 -45 -319 -108 -628 -308 -875 -566
-351 -365 -578 -859 -631 -1372 -18 -178 -7 -502 24 -681 126 -722 527 -1272
1160 -1592 l102 -52 -125 -59 c-730 -345 -1364 -533 -1678 -497 -261 30 -528
202 -628 405 -196 398 113 874 568 875 104 0 168 -15 265 -61 176 -84 306
-252 345 -446 10 -51 10 -53 -22 -89 -61 -70 -76 -152 -44 -234 36 -89 159
-94 195 -8 24 57 16 254 -14 370 -96 365 -370 588 -722 588 -170 0 -329 -53
-463 -154 -283 -215 -365 -646 -181 -958 103 -176 279 -302 516 -370 70 -21
99 -23 293 -23 179 1 235 4 335 23 371 70 751 209 1339 491 l169 81 124 -40
c138 -44 298 -80 478 -107 151 -22 654 -25 840 -5 402 45 746 134 1021 266
264 127 444 278 523 437 99 200 73 410 -65 546 -103 100 -254 151 -474 160
-302 12 -611 -63 -945 -229 -140 -71 -212 -113 -437 -259 -343 -224 -1038
-629 -1078 -629 -19 0 -160 83 -272 158 -169 114 -376 310 -500 472 -341 449
-501 1054 -433 1645 8 72 17 184 19 249 4 118 4 119 35 148 32 30 39 52 21 63
-15 9 -12 43 6 57 54 45 55 47 39 72 -14 21 -13 27 16 82 17 32 43 75 58 94
15 19 42 62 61 95 220 392 579 730 997 939 235 117 440 181 763 236 95 16
-191 1 -312 -16 l-107 -16 -44 30 c-58 40 -148 138 -181 199 -137 243 -94 500
115 697 84 79 183 135 289 163 125 34 415 16 655 -39 188 -43 429 -140 569
-229 l49 -31 -49 -41 c-195 -161 -401 -426 -519 -667 l-27 -55 -149 -2 c-776
-11 -1508 -401 -1928 -1028 -96 -142 -131 -208 -131 -243 0 -43 -20 -131 -36
-164 -8 -15 -22 -29 -33 -33 -21 -6 -35 -42 -20 -51 21 -13 9 -54 -21 -69 -33
-17 -38 -36 -15 -55 21 -17 13 -53 -32 -150 -53 -115 -66 -237 -60 -540 6
-308 32 -473 118 -733 37 -112 151 -350 215 -449 107 -167 248 -329 387 -446
111 -93 125 -98 46 -16 -258 269 -440 602 -530 968 -49 203 -63 328 -63 571
-1 248 13 361 69 581 123 479 414 921 808 1225 261 202 588 350 912 413 128
25 373 51 383 41 3 -3 -9 -56 -26 -117 -47 -170 -55 -233 -49 -397 4 -120 9
-162 31 -236 109 -363 400 -638 754 -712 110 -22 281 -14 384 20 182 59 339
190 417 348 59 122 74 192 68 319 -9 189 -63 306 -217 461 -177 180 -435 316
-753 399 -94 24 -111 32 -109 46 11 56 145 287 245 421 75 100 193 233 207
233 15 0 260 -168 367 -252 58 -46 194 -159 302 -251 297 -256 402 -329 553
-387 161 -62 352 -88 529 -71 134 13 205 32 304 81 178 87 279 243 306 473 45
380 -175 673 -647 861 -116 46 -331 101 -456 116 -156 20 -438 8 -569 -23
-496 -118 -879 -375 -1140 -764 -96 -144 -124 -204 -142 -301 -19 -98 -34
-134 -64 -147 -23 -10 -37 -41 -22 -51 5 -3 9 -19 9 -35 0 -22 -7 -32 -25 -41
-27 -12 -32 -37 -12 -68 10 -17 7 -35 -21 -113 -46 -126 -55 -183 -48 -317 14
-279 98 -512 233 -647 74 -75 99 -82 50 -15 -49 67 -73 118 -103 219 -36 120
-44 336 -20 502 19 126 63 305 96 393 l22 56 90 -25 c401 -109 706 -296 846
-517 159 -252 40 -612 -250 -756 -374 -184 -780 5 -938 437 -55 152 -65 243
-61 595 l1 177 30 28 c34 31 37 47 15 69 -22 23 -18 41 13 61 44 27 51 40 40
71 -9 23 -6 37 21 87 17 33 50 88 74 122 23 33 62 96 87 140 93 162 265 364
419 491 75 63 212 155 298 202 34 19 61 35 59 37 -10 10 -261 -110 -355 -170
l-54 -35 -47 29 c-144 89 -400 192 -604 244 -250 63 -572 90 -721 61z m2878
-116 c135 -29 293 -82 414 -140 336 -160 511 -402 488 -673 -22 -258 -161
-421 -406 -473 -45 -10 -122 -16 -200 -16 -224 0 -390 46 -548 153 -86 58
-133 98 -357 303 -164 151 -303 260 -476 376 -81 54 -153 101 -160 104 -33 13
180 160 357 246 149 73 268 115 365 129 41 6 86 13 100 15 63 11 329 -4 423
-24z m-950 -4414 c149 -44 215 -86 283 -178 80 -109 95 -250 38 -365 -15 -32
-56 -85 -93 -123 -229 -232 -670 -394 -1256 -462 -151 -17 -680 -17 -805 0
-197 28 -529 107 -513 122 4 4 71 43 148 85 208 115 562 330 800 485 215 140
362 225 482 281 178 81 364 146 501 174 108 23 306 14 415 -19z m-3814 -996
c1 -48 -4 -73 -19 -97 -24 -40 -44 -42 -67 -7 -31 49 -16 113 44 184 l28 33 6
-24 c4 -13 7 -53 8 -89z"/>
<path d="M23395 8209 c-275 -22 -588 -79 -828 -149 -1119 -327 -1844 -1034
-2021 -1970 -44 -234 -48 -613 -7 -825 92 -492 367 -936 736 -1192 50 -34 98
-68 108 -75 16 -12 -2 -43 -217 -372 -130 -198 -239 -363 -243 -367 -5 -4 -53
22 -108 57 -229 146 -378 204 -545 212 -174 7 -292 -32 -398 -132 -113 -106
-172 -240 -172 -393 0 -166 48 -282 170 -404 116 -118 236 -169 395 -169 96 0
166 17 260 64 102 50 179 112 379 305 98 94 182 171 187 171 5 0 56 -28 112
-62 390 -235 793 -386 1205 -449 277 -42 733 -37 1077 12 1233 176 2236 911
2648 1939 147 366 204 688 193 1085 -3 121 -10 240 -15 265 -6 31 -7 -2 -3
-105 14 -420 -63 -760 -263 -1170 -285 -584 -742 -1092 -1292 -1436 -626 -392
-1338 -568 -2060 -508 -427 35 -748 115 -1051 264 -163 79 -452 253 -452 271
0 6 9 19 20 29 39 35 228 271 385 480 87 116 159 211 160 213 2 2 56 -15 121
-37 244 -83 445 -118 724 -128 292 -9 500 25 726 121 196 83 340 182 499 341
135 135 225 260 309 430 114 229 172 457 183 721 9 218 -15 284 -102 284 -84
0 -119 -34 -132 -125 -8 -60 16 -120 67 -170 48 -47 50 -66 21 -237 -119 -693
-703 -1214 -1416 -1263 -124 -9 -319 8 -483 41 -163 32 -435 121 -428 140 3 7
45 71 94 141 348 498 644 974 997 1602 281 500 973 1780 1053 1949 46 96 54
184 22 225 -26 32 -48 37 -26 5 21 -29 20 -54 -3 -103 -18 -40 -701 -1179
-1019 -1700 -92 -150 -169 -288 -174 -310 -5 -22 -23 -71 -40 -108 -26 -55
-38 -71 -66 -82 -31 -13 -33 -17 -27 -46 8 -36 -16 -69 -50 -69 -26 0 -39 -22
-23 -38 20 -20 -2 -61 -74 -134 -41 -42 -105 -125 -151 -198 -44 -69 -101
-156 -127 -195 -26 -38 -138 -214 -250 -390 -254 -402 -517 -797 -652 -983
-408 -559 -736 -871 -981 -933 -200 -50 -439 101 -508 322 -63 203 31 408 230
503 62 29 73 31 176 30 90 -1 124 -5 190 -27 122 -40 284 -129 393 -215 l24
-18 -112 -175 c-61 -96 -130 -198 -153 -228 l-40 -55 49 35 c73 51 307 287
421 426 272 328 569 753 1045 1495 338 528 353 551 364 588 6 19 25 65 41 101
24 53 37 68 62 77 31 11 35 18 32 58 -2 23 23 54 43 54 25 0 39 27 26 50 -10
18 -7 28 16 63 15 23 49 65 75 92 55 58 198 288 674 1080 492 818 565 948 565
1000 0 30 -6 47 -22 62 -45 40 -70 47 -168 46 -204 -3 -316 -78 -281 -186 14
-43 45 -57 122 -57 79 0 111 17 189 101 60 65 66 69 85 56 15 -11 17 -19 10
-35 -20 -43 -2420 -3692 -2429 -3692 -24 0 -155 107 -266 219 -142 143 -224
254 -303 409 -241 470 -262 1095 -57 1640 22 59 51 122 64 142 12 19 26 51 30
70 3 19 18 66 33 103 22 57 33 71 62 86 30 14 36 21 33 44 -4 38 10 58 49 71
29 9 34 16 34 43 1 36 57 101 130 151 22 15 87 73 145 130 563 556 1415 933
2260 1001 l105 8 -145 0 c-80 0 -190 -3 -245 -8z m340 -414 c-57 -66 -110 -88
-154 -64 -35 20 -37 41 -7 70 31 30 86 47 154 48 l54 1 -47 -55z m509 -2357
c11 -16 16 -46 16 -103 0 -103 -7 -114 -47 -72 -69 73 -82 130 -41 174 27 29
52 29 72 1z"/>
<path d="M23680 8173 c-507 -37 -1065 -203 -1515 -450 -361 -198 -778 -533
-853 -685 -46 -94 -88 -146 -120 -150 -24 -3 -27 -8 -30 -44 -3 -41 -13 -51
-65 -68 -14 -5 -17 -12 -12 -39 6 -28 0 -41 -38 -92 -24 -33 -54 -69 -67 -80
-56 -50 -160 -316 -199 -510 -31 -154 -41 -264 -41 -462 0 -200 16 -352 54
-508 27 -108 79 -265 103 -305 9 -15 12 -17 7 -5 -23 67 -57 192 -71 265 -26
128 -24 446 5 600 154 836 756 1601 1613 2049 856 447 1800 492 2509 119 375
-197 769 -557 977 -891 69 -112 189 -359 236 -487 229 -618 255 -1161 83
-1755 -97 -338 -286 -698 -522 -995 -89 -113 -365 -387 -484 -481 -559 -445
-1233 -703 -2035 -778 -92 -9 -86 -10 70 -6 733 17 1573 315 2180 775 553 418
907 937 1050 1540 77 326 86 712 24 1068 -148 852 -695 1639 -1434 2063 -288
165 -619 274 -937 308 -89 10 -378 12 -488 4z"/>
<path d="M3933 7666 c-46 -21 -67 -67 -67 -151 -1 -59 3 -77 27 -117 15 -26
27 -52 27 -58 0 -36 -69 -149 -130 -214 l-69 -72 92 4 c69 4 95 9 105 21 7 9
39 70 72 136 85 170 119 323 90 399 -19 50 -92 76 -147 52z m91 -75 c16 -17
16 -24 -5 -115 -12 -53 -26 -96 -31 -96 -4 0 -19 23 -34 52 -20 40 -25 61 -21
95 8 72 54 105 91 64z"/>
<path d="M31045 6934 c-90 -20 -198 -65 -274 -114 -128 -83 -214 -193 -411
-525 -120 -201 -733 -1170 -756 -1194 -11 -12 -41 -8 -216 32 -405 93 -652
116 -876 83 -289 -43 -548 -169 -664 -323 -40 -52 -41 -53 -93 -53 -183 0
-444 -102 -664 -258 -260 -184 -557 -535 -706 -832 -147 -293 -185 -554 -119
-814 47 -186 189 -364 354 -445 139 -67 186 -76 415 -76 223 0 291 10 475 71
265 88 570 285 765 495 52 57 57 60 51 34 -4 -17 -10 -83 -13 -147 -5 -100 -3
-126 16 -185 38 -123 135 -217 253 -242 70 -15 281 -13 360 3 76 17 190 67
265 118 l51 35 34 -41 c73 -86 194 -126 388 -126 118 0 180 11 262 48 139 61
302 214 424 397 l78 117 17 -62 c64 -233 254 -425 481 -486 69 -18 217 -18
297 1 158 38 310 147 458 328 l31 39 10 -60 c13 -72 40 -129 89 -183 81 -90
197 -128 413 -136 131 -5 151 -3 210 17 89 30 181 94 277 192 126 128 233 277
362 501 79 137 101 189 101 237 0 63 -56 88 -120 55 -40 -21 -61 -66 -64 -135
-2 -51 -10 -70 -75 -178 -177 -296 -372 -503 -533 -564 -134 -51 -298 9 -361
132 -26 50 -28 62 -24 130 9 131 56 238 199 453 47 70 95 158 119 215 36 90
70 139 89 127 15 -9 32 25 26 50 -7 28 24 68 47 59 19 -7 29 21 21 61 -5 30 0
38 76 116 65 66 114 135 237 327 85 133 163 261 173 285 53 117 -10 235 -164
308 -69 33 -92 35 -124 13 -16 -11 -22 -25 -22 -54 0 -21 5 -42 11 -46 6 -3
19 -20 29 -36 14 -23 16 -37 9 -56 -12 -31 -675 -1085 -867 -1377 -337 -514
-486 -666 -690 -706 -129 -25 -236 12 -336 114 -67 68 -123 170 -151 272 -23
86 -29 233 -17 438 9 146 14 182 28 198 9 10 23 19 30 19 17 0 29 39 15 53
-17 17 -13 55 8 66 10 6 21 7 25 3 14 -13 26 23 21 59 -5 31 0 43 39 96 24 33
54 67 65 75 12 8 53 62 92 119 274 401 583 662 885 748 l69 20 -70 0 c-143 1
-345 -59 -495 -148 -229 -136 -425 -341 -649 -676 -114 -171 -172 -276 -219
-395 -45 -114 -92 -285 -92 -336 0 -35 -12 -70 -51 -148 -148 -293 -357 -518
-547 -586 -123 -45 -303 -10 -388 75 -78 78 -82 166 -15 326 33 80 49 108 171
299 40 63 88 150 106 193 48 114 66 142 96 145 37 4 52 25 38 52 -15 29 12 74
41 67 14 -4 21 1 25 18 3 13 3 28 0 34 -11 18 22 69 93 144 45 47 123 156 226
317 87 135 451 700 808 1255 357 556 671 1037 697 1070 27 33 81 92 122 131
166 162 314 213 443 155 l50 -22 -40 41 c-52 53 -129 90 -202 97 -76 7 -221
-12 -286 -38 -69 -27 -201 -117 -256 -173 l-45 -45 -53 50 c-65 61 -105 79
-180 79 -109 0 -258 -94 -386 -244 -35 -42 -417 -624 -885 -1350 -682 -1058
-829 -1292 -861 -1371 -41 -102 -63 -135 -92 -135 -20 0 -33 -29 -23 -53 7
-19 -37 -67 -62 -67 -13 0 -16 -7 -11 -35 5 -32 0 -42 -49 -100 -30 -35 -63
-70 -73 -77 -10 -7 -31 -33 -46 -58 -16 -25 -62 -96 -103 -159 -92 -140 -138
-236 -156 -324 -29 -136 15 -226 122 -257 26 -7 28 -6 24 24 -5 40 30 143 75
225 51 91 1214 1915 1265 1985 14 17 18 17 134 -4 65 -13 127 -26 136 -29 15
-5 -70 -142 -489 -791 -278 -432 -521 -816 -538 -855 -58 -125 -87 -288 -66
-375 10 -44 10 -46 -22 -72 -56 -47 -219 -125 -302 -143 -100 -23 -169 -16
-252 25 -84 42 -116 83 -121 162 -3 33 1 86 8 117 16 77 93 230 198 394 49 75
99 163 112 195 36 90 69 142 89 142 31 0 43 24 30 54 -10 22 -9 29 7 47 11 13
27 19 41 16 26 -5 37 16 23 44 -15 28 6 63 88 145 56 56 120 147 329 474 467
729 1214 1886 1326 2055 177 267 376 428 530 429 43 0 77 -6 111 -22 l49 -22
-19 22 c-33 39 -58 58 -109 85 -63 33 -168 40 -270 17z m330 -266 c29 -13 55
-55 55 -87 0 -12 -15 -42 -34 -68 -19 -27 -86 -135 -150 -241 -117 -193 -436
-700 -719 -1140 l-150 -234 -36 6 c-20 4 -82 16 -139 28 l-102 21 18 31 c24
40 610 942 773 1191 193 293 327 449 420 490 19 8 35 14 36 15 1 0 14 -5 28
-12z m-2370 -1577 c178 -34 516 -117 515 -127 0 -7 -427 -679 -689 -1084 l-55
-85 -8 44 c-10 60 -27 75 -72 67 -61 -12 -104 -96 -92 -180 5 -33 0 -53 -22
-101 -137 -288 -406 -592 -695 -785 -108 -73 -321 -179 -427 -214 -258 -85
-555 -89 -701 -10 -70 39 -167 145 -207 228 -73 150 -90 308 -65 596 13 154
22 185 58 202 23 10 25 15 19 54 -5 39 -4 44 22 60 16 10 31 19 33 21 3 2 6
21 7 42 2 40 21 70 107 172 20 24 68 85 105 136 274 374 620 633 932 698 34 7
34 7 19 -15 -10 -16 -40 -30 -98 -46 -246 -71 -494 -247 -720 -509 -121 -140
-187 -235 -195 -280 -4 -22 -23 -73 -41 -112 -25 -54 -39 -73 -53 -73 -24 0
-33 -21 -26 -58 6 -28 -10 -55 -38 -64 -7 -3 -12 -26 -13 -59 -1 -41 -10 -73
-39 -133 -25 -51 -41 -103 -47 -145 -32 -248 25 -473 157 -620 48 -54 83 -72
41 -21 -14 16 -36 56 -48 87 -21 52 -23 75 -23 213 0 126 4 171 22 242 62 249
177 430 316 498 57 27 68 26 182 -18 l99 -37 180 1 c283 1 527 52 744 155 237
113 368 256 401 438 51 283 -186 508 -563 537 -57 5 -86 11 -84 18 9 27 150
132 232 171 240 117 536 151 830 96z m-841 -412 c114 -38 221 -129 276 -232
l24 -45 -28 -65 c-72 -170 -211 -236 -373 -175 -81 30 -181 130 -211 211 -27
70 -29 188 -7 265 15 50 16 51 63 57 26 4 52 8 57 10 21 9 143 -8 199 -26z
m-442 -146 c-4 -131 14 -208 67 -291 93 -143 235 -217 402 -210 l80 3 -28 -23
c-84 -67 -339 -163 -538 -202 -231 -45 -417 -36 -558 27 -48 22 -77 28 -129
28 l-67 0 22 35 c129 214 363 483 528 608 51 39 206 132 219 132 3 0 4 -48 2
-107z"/>
<path d="M32079 6801 c-72 -28 -154 -87 -237 -171 -96 -97 -109 -115 -354
-500 -111 -173 -471 -736 -801 -1250 -354 -551 -611 -962 -627 -1002 -40 -97
-78 -158 -99 -158 -28 0 -45 -25 -32 -48 12 -23 -2 -47 -39 -65 -16 -8 -26
-22 -27 -37 0 -14 -1 -30 -2 -37 -1 -6 -36 -49 -79 -95 -93 -98 -270 -364
-321 -483 -43 -100 -54 -219 -26 -278 18 -38 63 -72 115 -87 28 -8 30 -7 24
15 -14 58 49 202 172 391 43 66 309 479 592 919 283 440 520 806 527 814 8 8
51 17 107 22 228 23 365 58 513 132 331 165 649 477 814 797 93 182 140 329
161 515 27 230 -24 479 -117 567 -61 59 -172 75 -264 39z m224 -173 c50 -102
67 -374 33 -533 -39 -181 -122 -363 -244 -535 -80 -114 -285 -323 -401 -410
-104 -78 -242 -160 -335 -199 -74 -31 -227 -65 -342 -77 -56 -6 -66 -5 -59 7
31 51 500 788 630 989 334 518 444 669 546 747 94 71 140 74 172 11z"/>
<path d="M33910 6040 l0 -90 35 0 35 0 0 -72 0 -73 55 60 54 60 1 103 0 102
-90 0 -90 0 0 -90z"/>
<path d="M26291 5844 c0 -11 3 -14 6 -6 3 7 2 16 -1 19 -3 4 -6 -2 -5 -13z"/>
<path d="M6665 4991 c-51 -24 -80 -51 -105 -101 -40 -77 -17 -147 65 -199 25
-16 123 -54 218 -85 301 -98 506 -214 673 -381 93 -93 200 -237 254 -345 28
-56 30 -64 18 -95 -11 -31 -10 -38 10 -64 26 -35 28 -63 7 -81 -20 -17 -19
-47 4 -76 19 -25 19 -25 -9 -107 -65 -185 -143 -376 -181 -440 -136 -229 -334
-379 -589 -448 -73 -20 -109 -23 -250 -23 -147 0 -176 3 -265 27 -175 47 -332
146 -351 221 -21 84 109 153 219 117 58 -19 152 -86 243 -172 47 -44 104 -93
126 -109 44 -32 43 -34 -26 -50 -50 -12 161 -12 230 1 244 43 455 178 591 379
42 63 105 191 137 279 23 63 27 93 29 194 2 110 4 120 25 137 27 22 28 41 2
65 -21 19 -26 50 -10 60 18 11 10 46 -15 68 -19 17 -28 41 -40 102 -8 44 -15
94 -15 111 0 46 -64 136 -167 235 -161 154 -355 262 -638 355 -175 57 -210 72
-264 113 l-34 26 16 -32 c19 -36 65 -76 118 -104 22 -11 39 -22 39 -25 0 -3
-33 -63 -74 -132 -40 -70 -147 -257 -236 -417 -90 -159 -201 -352 -247 -428
-104 -173 -108 -217 -21 -217 46 0 29 -25 257 383 267 479 438 777 447 777 2
0 34 -17 71 -37 248 -134 428 -304 521 -488 98 -196 108 -429 30 -675 -59
-185 -129 -309 -242 -429 -68 -72 -196 -170 -267 -207 l-47 -23 -63 48 c-35
27 -110 92 -166 144 -167 155 -265 203 -403 195 -62 -4 -88 -10 -131 -35 -105
-59 -144 -178 -92 -279 33 -62 132 -148 226 -194 164 -80 310 -99 767 -98 228
0 357 4 405 13 90 17 198 55 282 99 37 20 68 35 69 33 1 -1 -84 -148 -188
-327 -668 -1145 -993 -1650 -1247 -1937 -45 -51 -79 -93 -76 -93 3 0 32 16 63
36 201 128 661 708 1189 1499 395 593 1039 1616 1063 1690 29 87 69 165 86
165 10 0 25 7 35 16 14 13 16 21 8 42 -9 22 -7 30 11 44 12 10 26 16 31 13 13
-8 29 29 22 53 -7 27 14 60 88 137 69 73 292 446 320 537 54 172 -8 299 -171
353 -99 33 -123 -28 -45 -115 44 -49 45 -51 31 -83 -7 -18 -135 -225 -283
-462 -242 -385 -433 -702 -683 -1133 -77 -133 -88 -147 -164 -208 -103 -83
-220 -155 -310 -193 -112 -45 -126 -46 -56 0 257 165 450 538 467 899 13 286
-72 507 -273 706 -174 173 -482 334 -757 395 -46 10 -57 16 -51 28 43 103 55
206 30 265 -37 89 -189 134 -291 87z m171 -117 c22 -21 25 -31 19 -61 -11 -59
-52 -143 -70 -143 -53 0 -135 71 -135 116 0 93 123 151 186 88z"/>
<path d="M34862 4984 c-41 -20 -59 -37 -82 -78 -73 -126 -9 -212 205 -277 335
-101 563 -226 745 -409 95 -94 200 -238 255 -348 23 -48 25 -57 14 -87 -12
-31 -10 -37 16 -75 l28 -40 -21 -23 c-27 -29 -28 -52 -3 -83 19 -25 19 -25 -9
-107 -69 -201 -150 -392 -201 -472 -129 -206 -328 -352 -569 -416 -124 -34
-364 -34 -500 0 -216 53 -388 177 -366 264 11 44 69 80 138 85 88 7 172 -38
308 -164 58 -54 122 -110 144 -125 l38 -29 -26 -10 c-15 -5 -37 -11 -49 -11
-12 -1 -5 -5 15 -9 51 -9 208 4 292 25 272 69 466 231 600 502 71 143 87 204
89 338 2 108 4 118 25 135 27 22 28 41 2 65 -21 19 -26 50 -10 60 18 11 10 46
-15 68 -21 19 -28 39 -41 127 -9 58 -26 125 -37 150 -30 63 -214 245 -312 309
-123 81 -289 157 -470 217 -175 57 -210 72 -264 113 l-34 26 16 -32 c19 -36
65 -76 118 -104 22 -11 39 -22 39 -26 0 -3 -33 -63 -74 -132 -40 -69 -146
-255 -235 -413 -88 -157 -199 -350 -246 -428 -106 -176 -111 -220 -23 -220 46
0 29 -25 258 385 258 464 438 775 447 775 3 0 50 -25 105 -56 245 -138 429
-325 511 -520 131 -310 25 -777 -237 -1053 -68 -72 -196 -170 -267 -206 l-47
-24 -53 39 c-29 22 -102 85 -162 141 -173 159 -268 209 -396 209 -116 -1 -203
-48 -246 -133 -29 -60 -30 -75 -9 -147 23 -78 120 -172 234 -228 175 -86 316
-103 810 -98 417 4 431 6 615 95 251 122 483 345 740 709 35 50 40 63 40 113
0 88 -38 119 -104 84 -29 -14 -71 -94 -71 -134 0 -36 -20 -73 -87 -158 -191
-246 -434 -448 -637 -532 -113 -46 -126 -46 -56 -1 258 168 451 543 467 905
12 284 -73 503 -271 700 -174 173 -485 335 -759 396 -46 10 -57 16 -51 28 43
103 55 205 30 264 -41 98 -190 138 -304 81z m182 -105 c15 -12 26 -30 26 -45
0 -34 -50 -155 -67 -161 -21 -8 -91 27 -119 60 -29 35 -31 71 -4 115 33 54
114 70 164 31z"/>
<path d="M12940 4837 c-39 -19 -39 -73 0 -121 35 -45 35 -47 13 -89 -18 -37
-560 -898 -761 -1212 -415 -647 -567 -812 -790 -856 -34 -6 -86 -9 -114 -6
-162 20 -308 175 -369 392 -25 87 -30 234 -18 481 7 129 16 160 55 174 24 10
33 43 14 55 -18 11 -11 54 10 65 11 6 25 8 30 5 17 -11 31 32 19 59 -10 22 -7
32 35 91 26 36 57 71 68 78 11 7 51 58 89 114 101 150 213 284 335 404 192
186 350 285 559 350 l60 19 -100 -4 c-267 -12 -557 -162 -791 -408 -165 -174
-366 -458 -475 -670 -237 -464 -208 -891 78 -1158 133 -124 272 -176 453 -168
118 5 212 33 307 90 65 38 186 148 254 230 48 58 59 59 59 3 0 -14 9 -49 20
-79 61 -162 242 -246 531 -246 88 0 120 4 171 23 127 46 271 168 399 339 l66
87 51 -78 c65 -100 176 -203 283 -263 46 -27 88 -49 92 -51 5 -1 -1 -23 -12
-49 -50 -118 -53 -261 -6 -351 37 -70 44 -158 17 -207 -42 -76 -152 -129 -227
-109 -87 24 -150 180 -111 272 25 60 58 80 131 82 88 2 119 24 123 87 3 40 -1
49 -25 68 -23 19 -36 21 -80 17 -190 -19 -325 -238 -268 -433 25 -86 65 -137
132 -171 50 -24 70 -28 143 -28 137 1 234 57 289 167 45 89 44 163 -6 272 -44
98 -48 160 -15 256 32 94 30 92 92 80 29 -5 103 -10 165 -10 454 0 942 261
1285 688 70 87 79 88 80 12 1 -63 34 -205 65 -280 117 -278 352 -432 686 -447
458 -22 993 273 1293 710 102 149 213 421 258 631 31 145 31 378 0 532 -28
139 -85 323 -112 357 -27 35 -100 61 -146 54 -75 -12 -104 -74 -80 -167 21
-82 59 -126 142 -165 85 -40 85 -41 105 -214 34 -306 -74 -677 -289 -981 -92
-131 -302 -340 -421 -419 -224 -149 -440 -221 -661 -221 -234 0 -426 112 -527
306 -77 149 -97 285 -82 558 7 143 13 183 26 198 9 10 22 18 28 18 16 0 25 33
14 53 -12 20 6 66 28 74 27 10 33 25 27 58 -4 25 2 42 39 90 24 33 52 67 62
75 10 8 52 67 93 130 254 391 499 631 736 717 23 8 73 21 111 29 l70 14 -120
-4 c-132 -4 -232 -25 -352 -75 -456 -188 -876 -735 -974 -1271 -11 -61 -18
-73 -127 -210 -144 -180 -327 -364 -452 -452 -190 -134 -428 -239 -624 -273
-173 -30 -361 -13 -468 41 -116 59 -223 207 -263 364 -25 97 -35 210 -20 239
11 21 13 14 19 -63 14 -175 82 -349 167 -432 l41 -39 -27 53 c-110 222 -80
517 90 867 69 142 246 416 366 565 94 116 281 300 370 363 136 97 298 161 431
172 105 9 133 -8 170 -100 48 -117 121 -175 225 -178 58 -1 79 12 100 60 19
47 16 83 -12 139 -32 64 -66 89 -173 125 -404 137 -779 31 -1150 -325 -113
-109 -243 -261 -307 -360 -21 -33 -39 -79 -50 -128 -18 -85 -50 -141 -82 -146
-27 -4 -36 -27 -20 -52 15 -25 0 -54 -31 -58 -24 -4 -33 -29 -18 -54 7 -12 4
-36 -12 -85 -31 -94 -33 -97 -67 -81 -27 12 -27 13 -21 82 6 69 25 106 52 106
19 0 22 32 6 57 -18 29 -1 63 32 63 28 0 38 19 30 60 -7 32 32 105 82 151 14
13 58 68 96 123 233 327 491 553 751 656 76 30 206 62 312 77 l50 7 -75 8
c-159 16 -372 -20 -543 -93 -447 -190 -891 -734 -1033 -1265 -30 -113 -43
-318 -25 -394 10 -44 9 -47 -34 -111 -112 -170 -267 -325 -388 -390 -184 -98
-415 5 -434 193 -12 119 49 273 195 490 51 76 99 159 108 185 24 71 73 163 87
164 6 1 16 1 21 0 15 -3 26 22 26 61 0 37 21 60 45 52 20 -8 36 33 24 60 -11
23 -6 31 50 95 35 38 68 72 75 74 14 5 306 457 351 543 30 56 33 129 9 180
-22 46 -103 117 -169 149 -60 28 -79 30 -115 12z m2215 -232 c58 -37 78 -73
54 -101 -14 -17 -49 -12 -87 12 -22 15 -72 105 -72 131 0 17 36 3 105 -42z
m2271 -100 c18 -38 31 -72 29 -73 -2 -2 -21 6 -42 18 -66 37 -104 115 -71 148
18 18 46 -13 84 -93z m-3999 -2282 c7 -20 -41 -44 -75 -37 -39 8 -40 14 -4 37
30 19 73 19 79 0z"/>
<path d="M9945 4821 c-116 -33 -226 -93 -338 -185 -32 -26 -60 -46 -61 -44
-28 46 -62 89 -84 105 -71 52 -198 98 -327 117 l-39 5 34 -20 c100 -60 145
-132 144 -234 0 -96 -20 -141 -169 -389 -69 -115 -128 -221 -131 -235 -14 -63
-47 -152 -65 -175 -12 -15 -31 -26 -45 -26 -29 0 -40 -21 -25 -48 13 -24 -11
-62 -39 -62 -26 0 -41 -30 -28 -53 12 -23 -22 -76 -92 -141 -30 -28 -86 -108
-151 -213 -1067 -1743 -1816 -2777 -2182 -3014 -82 -53 -106 -56 -157 -23 -87
58 -239 38 -270 -35 -19 -48 3 -100 55 -126 82 -40 234 -26 348 31 342 173
797 697 1557 1794 356 514 621 921 1193 1839 384 616 406 649 500 747 185 193
362 288 537 287 167 -1 309 -107 400 -298 62 -129 74 -199 74 -415 0 -164 -3
-213 -23 -310 -40 -203 -134 -446 -229 -594 -147 -230 -359 -412 -570 -492
-141 -53 -234 -67 -391 -61 -203 8 -320 48 -420 141 -68 65 -93 114 -99 197
-8 121 58 281 154 368 72 66 89 68 177 30 99 -44 160 -48 230 -16 61 28 87 63
87 119 0 45 -19 78 -59 105 -40 27 -89 29 -189 8 -340 -71 -521 -286 -510
-605 3 -95 6 -112 35 -171 45 -91 129 -169 235 -218 140 -65 198 -76 403 -75
162 0 190 3 278 27 345 93 633 344 816 712 209 418 263 942 130 1261 -83 200
-207 329 -367 383 -79 27 -238 28 -327 2z m-541 -1414 c16 -26 -33 -67 -80
-67 -34 0 -107 30 -119 49 -9 15 84 40 139 38 35 -1 52 -7 60 -20z"/>
<path d="M32900 4822 c14 -9 48 -39 77 -68 65 -66 91 -138 73 -206 -7 -24 -90
-167 -186 -320 -96 -152 -183 -300 -194 -328 -38 -95 -69 -148 -92 -155 -40
-13 -48 -24 -36 -51 9 -19 8 -28 -7 -44 -10 -11 -28 -20 -41 -20 -26 0 -33
-14 -27 -55 4 -26 -5 -42 -75 -120 -114 -129 -262 -352 -301 -453 -51 -134
-58 -271 -15 -329 12 -16 36 -38 55 -51 l34 -23 7 57 c15 115 44 176 213 444
409 649 861 1380 871 1410 56 154 -71 280 -321 318 -57 9 -59 9 -35 -6z"/>
<path d="M13175 4778 c85 -78 117 -156 96 -234 -6 -22 -89 -163 -184 -314
-105 -167 -186 -308 -206 -358 -37 -92 -64 -132 -90 -132 -27 0 -42 -20 -30
-42 15 -29 1 -58 -32 -65 -38 -7 -53 -26 -41 -50 14 -25 4 -41 -78 -133 -84
-94 -217 -284 -263 -376 -57 -113 -80 -202 -76 -294 3 -60 9 -85 25 -107 20
-27 79 -73 94 -73 4 0 10 33 12 73 4 51 14 91 35 137 16 36 252 421 523 855
271 435 501 808 511 830 64 140 -36 271 -246 321 -108 25 -114 21 -50 -38z"/>
<path d="M12180 4805 c-314 -65 -615 -300 -908 -708 -67 -93 -86 -128 -98
-177 -20 -87 -60 -167 -87 -176 -40 -12 -48 -23 -31 -49 18 -28 9 -53 -21 -61
-30 -8 -39 -30 -21 -56 17 -25 5 -67 -50 -167 l-35 -63 0 -147 c0 -165 15
-256 62 -360 30 -65 102 -171 118 -171 4 0 -3 21 -15 48 -75 152 -72 364 7
606 69 212 277 571 479 826 104 132 274 301 371 370 139 98 283 157 426 175
74 9 118 -13 127 -63 13 -85 113 -185 199 -199 140 -22 205 137 95 231 -57 49
-203 123 -279 141 -78 18 -250 18 -339 0z m496 -181 c78 -44 106 -84 68 -98
-23 -9 -98 29 -112 57 -18 35 -32 77 -26 77 3 0 35 -16 70 -36z"/>
<path d="M31960 4805 c-281 -58 -553 -251 -815 -580 -114 -143 -176 -242 -196
-316 -31 -110 -65 -169 -100 -169 -22 0 -29 -19 -16 -47 13 -29 3 -51 -28 -63
-25 -10 -33 -34 -15 -45 21 -13 8 -64 -37 -150 l-46 -90 0 -155 c1 -170 17
-256 68 -365 27 -57 103 -160 112 -152 2 3 -5 23 -16 46 -35 68 -52 150 -52
256 0 269 106 541 360 925 317 480 630 742 944 790 64 9 80 9 116 -6 32 -13
41 -21 41 -40 0 -62 72 -157 145 -190 59 -28 95 -30 141 -8 44 21 64 59 64
120 0 43 -4 51 -44 89 -54 53 -231 140 -310 155 -80 14 -236 11 -316 -5z m496
-182 c72 -44 91 -67 73 -89 -22 -27 -99 8 -123 55 -19 37 -29 71 -20 71 4 0
36 -17 70 -37z"/>
<path d="M16666 4795 c-143 -30 -314 -134 -463 -283 -167 -168 -397 -491 -427
-602 -28 -104 -56 -154 -88 -158 -30 -4 -47 -37 -29 -55 20 -20 12 -46 -19
-62 -32 -17 -37 -34 -18 -65 10 -16 7 -32 -21 -97 -65 -152 -65 -151 -65 -278
1 -144 19 -227 74 -342 48 -98 127 -187 202 -228 53 -29 53 -29 35 -4 -117
161 -143 257 -134 498 6 155 20 238 69 391 67 210 168 412 317 638 237 358
446 531 672 558 204 24 385 -187 384 -446 -1 -182 -116 -385 -259 -457 -132
-67 -314 -23 -382 92 l-27 47 33 65 c46 88 51 160 18 223 -55 102 -173 122
-223 38 -23 -40 -24 -143 -1 -223 26 -88 92 -217 137 -269 114 -129 333 -163
507 -78 117 56 232 202 288 367 24 69 28 96 28 195 0 99 -4 126 -27 195 -54
157 -161 275 -294 325 -74 27 -196 34 -287 15z m-222 -577 c28 -40 30 -83 6
-134 -27 -54 -30 -51 -55 53 -14 59 -15 76 -5 88 18 21 36 19 54 -7z"/>
<path d="M30960 1925 c-63 -53 -119 -100 -123 -104 -5 -5 2 -20 15 -35 l23
-26 117 97 c64 54 117 103 117 109 1 7 -7 22 -17 33 l-17 22 -115 -96z"/>
<path d="M19878 1525 c-56 -20 -86 -44 -119 -91 -55 -80 -61 -129 -57 -482 3
-308 4 -318 27 -369 13 -29 43 -70 66 -92 59 -54 121 -71 262 -71 l113 0 0 34
0 34 -133 4 c-126 3 -136 5 -174 30 -28 19 -50 45 -70 85 l-28 58 0 315 c0
307 1 316 23 365 48 105 92 127 260 133 l122 4 0 29 0 29 -127 -1 c-81 0 -142
-5 -165 -14z"/>
<path d="M23780 980 l0 -560 168 0 c191 0 240 10 312 63 26 20 58 56 75 88 29
52 30 59 30 179 0 118 -2 128 -28 178 -18 33 -44 65 -73 84 l-44 32 34 35 c49
52 68 97 74 172 9 133 -56 251 -155 278 -21 6 -118 11 -215 11 l-178 0 0 -560z
m355 489 c126 -35 173 -215 84 -323 -54 -64 -90 -76 -239 -76 l-130 0 0 205 0
205 123 0 c67 0 140 -5 162 -11z m35 -483 c102 -53 146 -137 138 -262 -6 -96
-41 -155 -118 -201 l-54 -33 -143 0 -143 0 0 261 0 261 143 -4 c114 -3 149 -7
177 -22z"/>
<path d="M26590 980 l0 -560 240 0 240 0 0 35 0 35 -205 0 -205 0 0 260 0 260
150 0 150 0 0 30 0 30 -150 0 -150 0 0 205 0 205 205 0 205 0 0 30 0 30 -240
0 -240 0 0 -560z"/>
<path d="M28065 1521 c-158 -72 -195 -317 -66 -441 26 -25 110 -81 190 -125
79 -44 161 -95 183 -114 97 -83 103 -205 14 -299 -71 -75 -140 -71 -344 24
l-92 43 -16 -25 c-20 -30 -12 -42 61 -84 113 -64 257 -94 343 -71 52 14 115
69 145 125 18 33 22 58 22 131 0 151 -37 196 -266 321 -79 43 -163 96 -187
118 -87 80 -91 204 -9 293 68 73 122 77 295 21 90 -30 93 -30 107 -12 8 10 15
24 15 30 0 12 -93 56 -155 73 -65 18 -194 13 -240 -8z"/>
<path d="M29310 1510 l0 -30 125 0 125 0 0 -525 0 -525 35 0 35 0 0 525 0 525
125 0 125 0 0 30 0 30 -285 0 -285 0 0 -30z"/>
<path d="M30730 980 l0 -560 240 0 240 0 0 35 0 35 -210 0 -210 0 2 258 3 257
153 3 152 3 0 29 0 29 -152 3 -153 3 0 200 0 200 208 3 207 2 0 30 0 30 -240
0 -240 0 0 -560z"/>
<path d="M32070 1510 l0 -30 125 0 125 0 0 -525 0 -525 30 0 30 0 2 523 3 522
128 3 127 3 0 29 0 30 -285 0 -285 0 0 -30z"/>
<path d="M35045 1524 c-61 -21 -110 -68 -142 -132 l-28 -57 -3 -328 c-3 -281
-1 -336 13 -384 25 -85 65 -137 132 -170 53 -26 69 -28 191 -31 l132 -4 0 35
0 35 -134 4 c-131 3 -135 4 -177 33 -26 18 -53 50 -68 80 -26 49 -26 51 -29
342 -4 325 2 378 48 442 49 67 95 84 238 89 l122 4 0 29 0 29 -127 -1 c-84 0
-142 -6 -168 -15z"/>
<path d="M36473 1532 c-10 -7 -333 -1057 -333 -1083 0 -4 13 -12 29 -17 l29
-10 43 144 43 144 206 0 206 0 43 -144 43 -144 29 10 c16 5 29 13 29 17 0 4
-72 248 -160 541 -141 471 -168 550 -190 550 -3 0 -11 -4 -17 -8z m110 -444
c48 -161 87 -296 87 -300 0 -5 -81 -8 -180 -8 -99 0 -180 3 -180 8 0 16 175
592 180 592 3 0 45 -132 93 -292z"/>
<path d="M21080 975 l0 -555 235 0 235 0 0 35 0 35 -205 0 -205 0 0 520 0 520
-30 0 -30 0 0 -555z"/>
<path d="M22402 1098 l3 -433 29 -63 c51 -110 156 -182 266 -182 77 0 142 28
201 89 94 96 93 87 97 589 l3 432 -35 0 -36 0 0 -416 c0 -293 -4 -428 -12
-456 -14 -49 -91 -136 -135 -154 -38 -16 -120 -18 -157 -4 -43 16 -108 83
-132 135 -24 50 -24 51 -24 473 l0 422 -36 0 -35 0 3 -432z"/>
<path d="M33700 980 l0 -550 30 0 30 0 0 550 0 550 -30 0 -30 0 0 -550z"/>
</g>
</svg>
